<svg width="128" height="128" viewBox="0 0 128 128" fill="none" xmlns="http://www.w3.org/2000/svg">
    <path d="M118.03 102.32L72.29 123C69.47 124.33 66.53 124.2 63.83 122.64L6.09 93.32C4.44 92.26 3.95 90.71 4.05 89.63C4.15 88.55 4.4 87.38 7.3 86.54L11.58 84.96L69.5 116.53L110.66 99.71L118.03 102.32Z"
          fill="#01579B"/>
    <path d="M71.74 119.69C70.5962 120.227 69.3411 120.483 68.0786 120.438C66.816 120.392 65.5824 120.047 64.48 119.43L8.11 91.03C7.31 90.59 7.07 89.58 7.55 88.8C8.79 86.75 11.07 80.27 7.31 74.89L70.97 105.54L71.74 119.69Z"
          fill="#F5F5F5"/>
    <path d="M115.59 99.98L71.74 119.69C70.29 120.32 67.4 121.44 64.07 119.2C66.7 119.39 68.55 118.3 69.5 116.53C70.43 114.81 70.15 111.99 69.02 110.4C68.33 109.44 66.48 107.91 65.67 107.05L113.1 88.5C117.3 86.77 121.24 89.36 121.87 92.51C122.57 96.07 118.03 98.98 115.59 99.98Z"
          fill="#94C6D6"/>
    <path d="M117.78 86.96L72.51 107.16C69.66 108.29 66.47 108.14 63.74 106.76L5.9 77.38C5.34 77.1 4.51 76.33 4.18 75.28C3.64 73.53 4.32 71.33 6.37 70.63L69.05 102.58L111.97 84.21L117.78 86.96Z"
          fill="#01579B"/>
    <path d="M121.19 89.89L116.26 88.1L106.1 88.69L72.52 103.68C69.67 104.81 66.48 104.66 63.75 103.28L5.9 73.91C4.41 73.15 4.73 70.94 6.37 70.63L48.06 51.98C49.25 51.76 50.47 51.89 51.58 52.36L111.07 80.72C111.07 80.72 120.52 87.19 121.19 89.89Z"
          fill="#0091EA"/>
    <path d="M105.53 88.98C105.53 88.98 111.79 86.53 116.71 86.75C121.63 86.97 123.34 90.42 123.34 90.42C122.41 86.19 118.04 84.03 118.04 84.03L53.04 51.3C52.59 51.11 50.93 50.72 48.38 51.77C46.32 52.62 39.59 55.77 39.59 55.77L105.53 88.98Z"
          fill="#616161"/>
    <path d="M123.62 91.22C123.15 89.35 121.99 87.35 119.85 86.38C117.03 85.11 113.01 85.44 110.44 86.78L105.53 88.96V92.42L111.74 89.66C117.78 86.97 120.46 91 120.69 91.95C121.65 95.82 119.79 98.06 114.3 100.58L105.38 104.6V108.08L115.64 103.51C120.18 101.69 125.36 98.27 123.62 91.22Z"
          fill="#424242"/>
    <path d="M33.01 90.31L15.74 66.44L18.45 65.23L37.88 91.93L33.01 90.31ZM55.16 101.31L52.08 98.87L105.53 87.96V89.71L98.04 92.55L55.16 101.31Z"
          fill="#01579B"/>
    <path d="M14.8 46.18L82.31 34.9L111.8 67.37C113.29 68.94 112.48 71.54 110.36 71.97L40.66 86.27L14.8 46.18Z"
          fill="#9CCC65"/>
    <path d="M110.36 69.17L41.14 83.19L40.92 86.49L110.36 72.25C112.32 71.84 113.14 69.6 112.07 68.02C111.69 68.58 111.11 69.02 110.36 69.17ZM114.09 84.3C114.82 85.46 114.16 86.99 112.82 87.26L49.1 100.18C45.27 100.97 41.51 98.46 41.17 94.56C40.88 91.26 43.11 88.27 46.36 87.59L107.64 73.83L114.09 84.3Z"
          fill="#689F38"/>
    <path d="M55.59 80.1L30.21 43.78L15.73 47.61C12.38 50.94 13.63 56.41 13.63 56.41C13.63 56.41 35.8 91.99 39.3 96.54C42.8 101.09 47.91 100.38 47.91 100.38L56.54 98.64L55.64 82.54L55.59 80.1Z"
          fill="#616161"/>
    <path d="M55.59 80.34L43.4 82.86C40.07 83.61 39.47 86.74 39.47 86.74L10.04 44.57C10.04 44.57 5.85 49.64 8.63 53.95L39.3 96.54C42.65 101.31 47.91 100.42 47.91 100.42L56.54 98.68L55.65 82.9L55.59 80.34Z"
          fill="#424242"/>
    <path d="M110.25 83C110.56 83.68 110.16 84.47 109.43 84.62L48.5 97.12C44.67 97.91 41.96 95.37 42.1 91.91C42.28 87.54 44.73 85.69 47.97 85.02L109.2 72.51C109.2 72.51 107.12 74.85 108.71 79.23C109.25 80.74 109.83 82.08 110.25 83Z"
          fill="#B9E4EA"/>
    <path d="M45.21 83.7L19.1 46.76" stroke="#424242" stroke-width="2.071" stroke-miterlimit="10"/>
    <path d="M47.26 67.95L13.68 51.03L12.32 53.71L51.12 73.48L47.26 67.95Z" fill="#424242"/>
    <path d="M108.79 64.03L106.33 61.33L68.5 78.69L47.26 68.18L50.88 73.36L64.95 80.55L75.43 78.94L108.79 64.03Z"
          fill="#689F38"/>
    <path d="M118.02 57.35L72.29 78.03C69.47 79.36 66.53 79.23 63.83 77.67L6.09 48.35C4.44 47.29 3.95 45.74 4.05 44.66C4.15 43.58 4.4 42.41 7.3 41.57L10.01 40.57L69.33 69.68L117.5 49.75L118.02 57.35Z"
          fill="#C62828"/>
    <path d="M71.73 74.72C70.5863 75.2565 69.3311 75.5128 68.0686 75.4676C66.806 75.4224 65.5724 75.077 64.47 74.46L8.1 46.06C7.3 45.62 7.06 44.61 7.54 43.83C8.78 41.78 11.06 35.3 7.3 29.92L69.54 61.58L71.73 74.72Z"
          fill="#F5F5F5"/>
    <path d="M115.58 55.01L71.73 74.72C70.28 75.35 67.39 76.47 64.06 74.23C66.69 74.42 68.54 73.33 69.49 71.56C70.42 69.84 70.14 67.02 69.01 65.43C68.32 64.47 66.47 62.94 65.66 62.08L113.09 43.53C117.29 41.8 121.23 44.39 121.86 47.54C122.56 51.1 118.02 54.01 115.58 55.01Z"
          fill="#94C6D6"/>
    <path d="M117.78 41.99L72.51 62.19C69.66 63.32 66.47 63.17 63.74 61.79L5.89 32.41C5.29 32.11 4.39 31.34 4.1 30.25C3.67 28.63 4.23 26.5 6.36 25.66L59.37 14.43L117.78 41.99Z"
          fill="#C62828"/>
    <path d="M121.18 44.92L116.25 43.13L106.09 43.72L72.51 58.71C69.66 59.84 66.47 59.69 63.74 58.31L5.89 28.93C4.4 28.17 4.93 26.16 6.36 25.65L48.06 7.01C49.25 6.79 50.47 6.92 51.58 7.39L111.07 35.75C111.07 35.75 120.51 42.21 121.18 44.92Z"
          fill="#F44336"/>
    <path d="M105.53 44C105.53 44 110.74 42.17 115.66 42.39C120.58 42.61 123.35 45.44 123.35 45.44C122.34 40.92 118.05 39.05 118.05 39.05L53.05 6.32C52.6 6.13 50.94 5.74 48.39 6.79C46.33 7.64 39.6 10.79 39.6 10.79L105.53 44Z"
          fill="#616161"/>
    <path d="M111.48 41.86L44.97 8.31001L47.17 7.32001L114.81 41.22L111.48 41.86Z" fill="#424242"/>
    <path d="M123.61 46.25C123.14 44.38 122.35 42.57 120.12 41.63C117.27 40.43 114.67 40.18 110.43 41.81L105.52 43.99V47.45L111.73 44.69C114.88 43.21 119.52 43.53 120.68 46.98C121.95 50.76 119.78 53.09 114.29 55.61L105.37 59.63V63.11L115.63 58.54C120.18 56.72 125.36 53.3 123.61 46.25Z"
          fill="#424242"/>
    <path d="M94.3 26.55C93.45 27.85 91.25 29.2 89.3 30.2C89.4 30.3 89.6 30.6 89.7 30.6C90.25 30.35 90.8 30.15 91.35 29.9C92.45 29.4 93.55 28.75 94.55 28C96.55 26.4 97.3 21.6 98.75 21.5C99.6 21.5 100.4 22.75 101 23.3L101.85 22.45C101.9 22.4 101.2 21.75 101.15 21.7C100.3 20.85 99.3 19.95 97.95 20.45C96.15 21.15 95.3 25.1 94.3 26.55ZM98.95 21.55C98.95 21.55 99 21.55 98.95 21.55V21.55ZM98.3 21.65C98.25 21.65 98.25 21.65 98.3 21.65V21.65ZM77.15 49.45C77 49.65 76.95 49.85 77.05 49.95C77.15 50.05 77.4 50 77.55 49.85L78.75 49L78 48.25L77.15 49.45Z"
          fill="#93A2AA"/>
    <path d="M90.15 32.15L94.85 36.85L106.55 24.35L102.65 20.45L90.15 32.15Z" fill="#828181"/>
    <path d="M80.686 42.3975L90.5505 32.5335L94.4395 36.4225L84.575 46.2865L80.686 42.3975Z" fill="#828181"/>
    <path d="M77.6 47.85L79.15 49.4L84.6 46.3L80.7 42.4L77.6 47.85ZM91.6 30.7L96.3 35.4L94.85 36.85L90.15 32.15L91.6 30.7Z"
          fill="#C7D3D8"/>
    <path d="M102.9 20.7L106.3 24.1C107.25 23.15 107.25 21.65 106.3 20.7C105.35 19.75 103.85 19.75 102.9 20.7Z"
          fill="#828181"/>
    <path d="M101.977 20.874L102.684 20.167L106.856 24.339L106.149 25.046L101.977 20.874Z" fill="#C7D3D8"/>
</svg>
